<svg xmlns="http://www.w3.org/2000/svg" viewBox="0 0 2178.36 1534.013"><path fill="#100f0d" d="M2178.36 1533.426H0V0h2178.36v1533.426"/><path fill="currentColor" d="M1177.93 768.341c0 218.227-175.703 395.134-392.442 395.134-216.74 0-392.443-176.907-392.443-395.134 0-218.228 175.703-395.134 392.443-395.134 216.739 0 392.443 176.906 392.443 395.134M1608.453 768.341c0 205.423-87.853 371.951-196.226 371.951-108.368 0-196.22-166.528-196.22-371.95 0-205.425 87.852-371.953 196.22-371.953 108.373 0 196.226 166.528 196.226 371.952M1784.547 768.341c0 184.051-30.894 333.252-69.014 333.252-38.106 0-69.013-149.201-69.013-333.252 0-184.052 30.907-333.253 69.013-333.253 38.12 0 69.014 149.201 69.014 333.253"/></svg>