<svg xmlns="http://www.w3.org/2000/svg" xmlns:xlink="http://www.w3.org/1999/xlink"><defs><symbol viewBox="0 0 35.318 35.318" id="github"><path d="M23.71 34.689c-.172.062-.345.137-.522.168-.678.121-1.112-.229-1.116-.922-.009-1.287-.009-2.572.012-3.859.022-1.48-.012-2.941-1.139-4.162.67-.12 1.266-.204 1.849-.338 3.862-.887 5.868-3.323 6.124-7.366.131-2.058-.236-3.946-1.604-5.567-.099-.114-.104-.373-.057-.539.364-1.34.258-2.649-.166-3.959-.105-.327-.279-.428-.602-.407-1.134.063-2.173.461-3.089 1.073-.883.593-1.705.722-2.754.482-2.31-.521-4.635-.369-6.94.165-.261.062-.612-.021-.851-.161-1.082-.634-2.164-1.25-3.412-1.496-.965-.188-1.049-.14-1.305.793-.322 1.176-.354 2.353-.025 3.536.047.172-.002.448-.117.575-2.557 2.853-1.631 8.244.092 10.309 1.34 1.604 3.12 2.326 5.096 2.701.345.064.688.113 1.033.173-.296.77-.562 1.497-.863 2.212-.059.138-.246.254-.399.312-1.938.752-3.604.199-4.713-1.56-.593-.938-1.354-1.639-2.488-1.842-.036-.007-.073-.026-.106-.021-.305.08-.607.164-.911.246.171.238.292.558.521.701.961.608 1.586 1.475 1.999 2.498.649 1.604 1.909 2.319 3.546 2.459.799.065 1.606.01 2.481.01 0 .996.036 2.133-.015 3.265-.026.61-.639.854-1.373.604-1.947-.666-3.752-1.621-5.311-2.963C.956 26.96-1.214 20.83.657 13.655 2.522 6.503 7.383 2.116 14.651.739 24.708-1.163 34.235 6.161 35.233 16.37c.788 8.048-3.949 15.579-11.523 18.319zm-9.481-8.839l-.016.038.055.009c.014.001.026.026-.039-.047zm-4.55 3.181c.157.097.307.22.477.273.062.02.177-.121.38-.271-.282-.107-.448-.201-.623-.225-.068-.008-.156.145-.234.223zm1.433.246c.023.105.232.236.355.234.119-.002.235-.16.354-.25-.108-.099-.216-.195-.548-.494-.072.208-.191.376-.161.51zm1.758-.423c-.148.035-.273.172-.408.266.079.1.158.193.285.35.175-.16.294-.271.414-.379-.1-.087-.217-.255-.291-.237zm-4.358-.593c.082.155.209.289.381.508.115-.188.24-.332.218-.361a1.931 1.931 0 0 0-.403-.367c-.01-.008-.213.186-.196.22z" fill="#FFF" /></symbol><symbol viewBox="0 0 49.652 49.652" id="instagram"><path d="M24.825 29.796a4.978 4.978 0 0 0 4.972-4.97 4.954 4.954 0 0 0-.94-2.897 4.964 4.964 0 0 0-4.029-2.073c-1.659 0-3.126.82-4.031 2.072a4.947 4.947 0 0 0-.94 2.897 4.973 4.973 0 0 0 4.968 4.971zM35.678 18.746V13.96l-.623.002-4.164.013.016 4.787z" data-original="#000000" class="active-path" data-old_color="#000000" fill="#F9F6F6" /><path d="M24.826 0C11.137 0 0 11.137 0 24.826c0 13.688 11.137 24.826 24.826 24.826 13.688 0 24.826-11.138 24.826-24.826C49.652 11.137 38.516 0 24.826 0zm14.119 21.929v11.56a5.463 5.463 0 0 1-5.457 5.458H16.164a5.462 5.462 0 0 1-5.457-5.458V16.165a5.462 5.462 0 0 1 5.457-5.457h17.323a5.463 5.463 0 0 1 5.458 5.457v5.764z" data-original="#000000" class="active-path" data-old_color="#000000" fill="#F9F6F6" /><path d="M32.549 24.826c0 4.257-3.464 7.723-7.723 7.723s-7.722-3.466-7.722-7.723a7.67 7.67 0 0 1 .568-2.897h-4.215v11.56a2.706 2.706 0 0 0 2.706 2.704h17.323a2.707 2.707 0 0 0 2.706-2.704v-11.56h-4.217c.367.894.574 1.873.574 2.897z" data-original="#000000" class="active-path" data-old_color="#000000" fill="#FFF" /></symbol><symbol viewBox="0 0 512 512" id="linkedin"><path d="M256 0C114.637 0 0 114.637 0 256s114.637 256 256 256 256-114.637 256-256S397.363 0 256 0zm-74.39 387h-62.348V199.426h62.347zm-31.173-213.188h-.406c-20.922 0-34.453-14.402-34.453-32.402 0-18.406 13.945-32.41 35.274-32.41 21.328 0 34.453 14.004 34.859 32.41 0 18-13.531 32.403-35.274 32.403zM406.423 387h-62.34V286.652c0-25.218-9.027-42.418-31.586-42.418-17.223 0-27.48 11.602-31.988 22.801-1.649 4.008-2.051 9.61-2.051 15.215V387h-62.344s.817-169.977 0-187.574h62.344v26.558c8.285-12.78 23.11-30.96 56.188-30.96 41.02 0 71.777 26.808 71.777 84.421zm0 0" data-original="#000000" class="active-path" data-old_color="#FFF8F8" fill="#FFF" /></symbol><symbol viewBox="0 0 195 195" id="medium"><g fill="none"><path fill="#FFF" d="M0 0h195v195H0z" /><path d="M46.534 65.216a5.074 5.074 0 0 0-1.651-4.28L32.65 46.2V44h37.98l29.355 64.381L125.795 44H162v2.201l-10.458 10.027a3.057 3.057 0 0 0-1.162 2.935v73.674a3.057 3.057 0 0 0 1.162 2.935l10.213 10.027V148h-51.372v-2.201l10.58-10.272c1.04-1.04 1.04-1.345 1.04-2.934V73.042l-29.417 74.713H88.61L54.362 73.042v50.074a6.908 6.908 0 0 0 1.896 5.747l13.76 16.691v2.201H31v-2.2l13.76-16.692a6.663 6.663 0 0 0 1.774-5.747v-57.9z" fill="#145629" /></g></symbol><symbol viewBox="0 0 24 24" id="more"><path d="M0 0h24v24H0z" fill="none" /><path d="M6 10c-1.1 0-2 .9-2 2s.9 2 2 2 2-.9 2-2-.9-2-2-2zm12 0c-1.1 0-2 .9-2 2s.9 2 2 2 2-.9 2-2-.9-2-2-2zm-6 0c-1.1 0-2 .9-2 2s.9 2 2 2 2-.9 2-2-.9-2-2-2z" /></symbol></defs></svg>